<<<<<<< HEAD
<?xml version="1.0" encoding="UTF-8"?>
<mxfile host="app.diagrams.net" agent="Mozilla/5.0 (Macintosh; Intel Mac OS X 10_15_7) AppleWebKit/537.36 (KHTML, like Gecko) Chrome/138.0.0.0 Safari/537.36" version="28.0.4"><diagram id="ir7Ig85VBE7FHxGgZYNk" name="ページ1">7Vxtc5s4EP41zFw/NMOLwfijYztt55K7TOL2ep86slFsXQF5QE7i/voTIPEmiMFgx0nVyXTQIglJz+6zZldCMSbe86cAbNY32IGuoqvOs2JMFV0fjVT6fyTYJYKhNUgEqwA5iUjLBPfoF2RC1m61RQ4MCxUJxi5Bm6JwiX0fLklBBoIAPxWrPWC3+NQNWEFBcL8Erij9BzlknUhtfZjJP0O0WvMna9YoueMBXpnNJFwDBz/lRMZMMSYBxiS58p4n0I3Wjq9L0u6q5m46sAD6pEkDw0haPAJ3yya3XCPXoe3ZAMmOzzp8Qp4LfFq6fMA+uWd3VFqO21yDHd5GTw0JWP7kpcs1DtAvWh+49JZGBfR2QBioulWocR+1ZH0GMKR1bvlUtJLoBjwXKl6DkPDRYNcFmxAt4vFFDT0QrJB/iQnBHqsEXLTy6fWS9gUDPqdkVNqAlsWlZKv7CAMCn3MitrSfIPYgCXa0Crtr2AzmHVcEVn7KtEZXmWyd0xhds5i2Mk1dpX1nYNILhmcNtgMBW3prZih0VPTvsIuJrozb/M8bfv36ZSpq1Bpsoku6yAQB947aKvBXbqxhyHUn2MUUmamPY6XjiLnwIdKrCAZEbXLMxB5ynLhpSAL8E5YahxuwRP7qOm47NSKAA0wAAYtUiTcY+SReb/OS/lFYJuqFqZh0pBNa1rIy/YuqB2SCffo0gGINgVQDn2CkhZdOgDdzqnOQq6SoTKnl7dcmpj261Ux5DLUH3TEF3bn9sw1+BG/Y1BO44stF3gArEA4JBY4zamS3DgjX0GGFxvgXoB5kkju2RpEI0+YPbky9a9qQ0t0+hdiHebQIbKQVaA9q0E6dFHtuwQ8UtCAHu3Es1C0BdQFz6DvjyIVmqK2Jx6k9wFvfiQGL1g8+I/I9ur4wTVb8N6p4oVpDVp4+5+pOd7nCLQwQnUBEzXssKMTbYMlGN2AzgE7Bg7+4mmbFanJZAF1A0GPR71ctMXvCbaQymQNICZ+bsFZCKRk7a5X300JHerGjkn8gMdkI/cSAp7NupgPD/TrgIj8j2ry9li0otd+YCMACurc4RAThyGCDZLnb2vU8ZZaioVutLbYPUjYbknIZ+IPM0xag2YYw+NHQqycOWW93If12ZxWxTum3R4KKXEm/3cFv2zVon5XfHqgC6j5a/vSBB2vNn8u/je8mn8d3f5jqh8MYYv8FK0oS6UAioxOSyEAT1ElSyMEUkhrneVOILmC+QAFZO4DAQyIEVXQwHc9nkgY60YB2yiDAQAwOSh44nAf0GrDPiwfEoOEygJQEnB+AvGD28y83s/v5+OZWGng3A2/6QtkL2GKUTxr44Qb+JmJ8AzHGt904goHXe3Fp6T1Zun1KS28Q1ZOW3tjSrRqwz8vSq8OFoQj8ERK7hqq848Quf6fj0fiKtG4VqmnFTrCKIb7uad32L3YyMFwmhbpQYa0HMBqqTR9kwBNaMqHbkwsY1aB9Vi7AbBDJa5PQ9enzWUY33rkTCwo53UiQJXXj0i5f2p/W5XZEuLnRosXmsTet2zVfqxeJvYxB43RtqR+t3FF/+VpTDNwJEL/bfG17zrUacm4f+dqr4WRxc/0F6X+hxRj+N/+G7MePI/GdG3oARe36yuLylI5umh9+exddQdCiBtWqy/CELrpaXRpsyZFe+yWv3dhDFxXjBeN9FVdePR4xQl9M+vZDJJqq/s5EEr1A8hEpFMz4X08Eo6mvzjBixF8yzOsxjPF6LwsimawwpihXbzCTP0ROGSvQThoskJTQY6jArEsNnFeoQAwrNkr8NuEBmTLqiQSavr32oRD8WZIEeiGBNxEvtMR4YbvksGSDE7LB6JRs0CDMKNmgKRtYdRnHs2KDoZhAXq6B60J/BU+TRX7fx4N5To5nke0Ke9YrsE13jnQCV6aRz9IPDFv7gaotwVVq0wcl2OKPQplG7uAIhm/iZ6Hdcxo5PRdsGZaSPxisGYbS/WAwN6H8wWCbLfS5HAwu7SDSTLvYReNMc3krUqmf/hLNdoNfgO820dyelav2cVc68z7ss/IrLsg56slg6dGP5tGrTgwfzaOLsV55YriDR7ffRLTXFneh0Jn64TJAmxejvR0DwbPvc8kNnbih6iDw0bhBbj7pkxnMGqzPixnEkyJL7HnRLHr/BbHvQtJFZ7qoPDB8NL4QA4aSLw7ni2EN2OfFF4fmjQXukHmhnky+6atnH/DzHJQ0+V5M/k2EA0dNwoHOCvIUEJ0eIru7OGKG/Vl2p5BU0Yshw1w8cXZHcZ/jG+DvFJYfym55wHf+jtWi7qyKkjunEhnmnlMqLDipKVlgkrWqDUuKQLIVKnyakGGbP9fCPwvZJiqpVX9erp+4pFH6YGG646RtXHJQOgGTxpD3BCYpsGCXq8aMq3bAA6P0HLZjP1PlpMdDo54VO6zPWdcvRiOtqO+6dtC5LG4GH9ULVS+Ygv2yLTQL0VfYB7eFvH0MD4jaH9U+zPLBrkM/6DkoJ3814yj2YZYTDUx/68ZVrj9qV10zu3Tf1lppMftUelI9+968Mfsf</diagram></mxfile>
=======
<mxfile host="65bd71144e">
    <diagram id="ir7Ig85VBE7FHxGgZYNk" name="ページ1">
        <mxGraphModel dx="582" dy="404" grid="1" gridSize="10" guides="1" tooltips="1" connect="1" arrows="1" fold="1" page="1" pageScale="1" pageWidth="827" pageHeight="1169" math="0" shadow="0">
            <root>
                <mxCell id="0"/>
                <mxCell id="1" parent="0"/>
                <mxCell id="33" value="children" style="swimlane;fontStyle=0;childLayout=stackLayout;horizontal=1;startSize=26;horizontalStack=0;resizeParent=1;resizeParentMax=0;resizeLast=0;collapsible=1;marginBottom=0;align=center;fontSize=14;" parent="1" vertex="1">
                    <mxGeometry x="380" y="110" width="200" height="216" as="geometry"/>
                </mxCell>
                <mxCell id="34" value="id　　　　　　　        　UUID" style="shape=partialRectangle;fillColor=none;align=left;verticalAlign=middle;strokeColor=none;spacingLeft=34;rotatable=0;points=[[0,0.5],[1,0.5]];portConstraint=eastwest;dropTarget=0;" parent="33" vertex="1">
                    <mxGeometry y="26" width="200" height="30" as="geometry"/>
                </mxCell>
                <mxCell id="35" value="PK" style="shape=partialRectangle;top=0;left=0;bottom=0;fillColor=none;stokeWidth=1;dashed=1;align=left;verticalAlign=middle;spacingLeft=4;spacingRight=4;overflow=hidden;rotatable=0;points=[];portConstraint=eastwest;part=1;" parent="34" vertex="1" connectable="0">
                    <mxGeometry width="30" height="30" as="geometry"/>
                </mxCell>
                <mxCell id="36" value="" style="endArrow=none;html=1;rounded=0;exitX=0.55;exitY=1.067;exitDx=0;exitDy=0;exitPerimeter=0;" parent="33" source="46" edge="1">
                    <mxGeometry width="50" height="50" relative="1" as="geometry">
                        <mxPoint x="110" y="210" as="sourcePoint"/>
                        <mxPoint x="112" y="26" as="targetPoint"/>
                    </mxGeometry>
                </mxCell>
                <mxCell id="37" value="" style="line;strokeWidth=1;rotatable=0;dashed=0;labelPosition=right;align=left;verticalAlign=middle;spacingTop=0;spacingLeft=6;points=[];portConstraint=eastwest;" parent="33" vertex="1">
                    <mxGeometry y="56" width="200" height="10" as="geometry"/>
                </mxCell>
                <mxCell id="38" value="user_id　　　　            UUID" style="shape=partialRectangle;fillColor=none;align=left;verticalAlign=middle;strokeColor=none;spacingLeft=34;rotatable=0;points=[[0,0.5],[1,0.5]];portConstraint=eastwest;dropTarget=0;" parent="33" vertex="1">
                    <mxGeometry y="66" width="200" height="30" as="geometry"/>
                </mxCell>
                <mxCell id="39" value="FK" style="shape=partialRectangle;top=0;left=0;bottom=0;fillColor=none;stokeWidth=1;dashed=1;align=left;verticalAlign=middle;spacingLeft=4;spacingRight=4;overflow=hidden;rotatable=0;points=[];portConstraint=eastwest;part=1;" parent="38" vertex="1" connectable="0">
                    <mxGeometry width="30" height="30" as="geometry"/>
                </mxCell>
                <mxCell id="40" value="name　  　　　VARCHAR(50)                    " style="shape=partialRectangle;fillColor=none;align=left;verticalAlign=middle;strokeColor=none;spacingLeft=34;rotatable=0;points=[[0,0.5],[1,0.5]];portConstraint=eastwest;dropTarget=0;" parent="33" vertex="1">
                    <mxGeometry y="96" width="200" height="30" as="geometry"/>
                </mxCell>
                <mxCell id="41" value="" style="shape=partialRectangle;top=0;left=0;bottom=0;fillColor=none;stokeWidth=1;dashed=1;align=left;verticalAlign=middle;spacingLeft=4;spacingRight=4;overflow=hidden;rotatable=0;points=[];portConstraint=eastwest;part=1;" parent="40" vertex="1" connectable="0">
                    <mxGeometry width="30" height="30" as="geometry"/>
                </mxCell>
                <mxCell id="42" value="birthdate　　　　　      DATE" style="shape=partialRectangle;fillColor=none;align=left;verticalAlign=middle;strokeColor=none;spacingLeft=34;rotatable=0;points=[[0,0.5],[1,0.5]];portConstraint=eastwest;dropTarget=0;" parent="33" vertex="1">
                    <mxGeometry y="126" width="200" height="30" as="geometry"/>
                </mxCell>
                <mxCell id="43" value="" style="shape=partialRectangle;top=0;left=0;bottom=0;fillColor=none;stokeWidth=1;dashed=1;align=left;verticalAlign=middle;spacingLeft=4;spacingRight=4;overflow=hidden;rotatable=0;points=[];portConstraint=eastwest;part=1;" parent="42" vertex="1" connectable="0">
                    <mxGeometry width="30" height="30" as="geometry"/>
                </mxCell>
                <mxCell id="44" value="created_at　　　TIMESTAMP" style="shape=partialRectangle;fillColor=none;align=left;verticalAlign=middle;strokeColor=none;spacingLeft=34;rotatable=0;points=[[0,0.5],[1,0.5]];portConstraint=eastwest;dropTarget=0;" parent="33" vertex="1">
                    <mxGeometry y="156" width="200" height="30" as="geometry"/>
                </mxCell>
                <mxCell id="45" value="" style="shape=partialRectangle;top=0;left=0;bottom=0;fillColor=none;stokeWidth=1;dashed=1;align=left;verticalAlign=middle;spacingLeft=4;spacingRight=4;overflow=hidden;rotatable=0;points=[];portConstraint=eastwest;part=1;" parent="44" vertex="1" connectable="0">
                    <mxGeometry width="30" height="30" as="geometry"/>
                </mxCell>
                <mxCell id="46" value="updated_at　      TIMESTAMP" style="shape=partialRectangle;fillColor=none;align=left;verticalAlign=middle;strokeColor=none;spacingLeft=34;rotatable=0;points=[[0,0.5],[1,0.5]];portConstraint=eastwest;dropTarget=0;" parent="33" vertex="1">
                    <mxGeometry y="186" width="200" height="30" as="geometry"/>
                </mxCell>
                <mxCell id="47" value="" style="shape=partialRectangle;top=0;left=0;bottom=0;fillColor=none;stokeWidth=1;dashed=1;align=left;verticalAlign=middle;spacingLeft=4;spacingRight=4;overflow=hidden;rotatable=0;points=[];portConstraint=eastwest;part=1;" parent="46" vertex="1" connectable="0">
                    <mxGeometry width="30" height="30" as="geometry"/>
                </mxCell>
                <mxCell id="48" value="users" style="swimlane;fontStyle=0;childLayout=stackLayout;horizontal=1;startSize=30;horizontalStack=0;resizeParent=1;resizeParentMax=0;resizeLast=0;collapsible=1;marginBottom=0;align=center;fontSize=14;" parent="1" vertex="1">
                    <mxGeometry x="40" y="20" width="230" height="160" as="geometry"/>
                </mxCell>
                <mxCell id="49" value="id　　　　　　　　　　　   UUID" style="shape=partialRectangle;fillColor=none;align=left;verticalAlign=middle;strokeColor=none;spacingLeft=34;rotatable=0;points=[[0,0.5],[1,0.5]];portConstraint=eastwest;dropTarget=0;" parent="48" vertex="1">
                    <mxGeometry y="30" width="230" height="30" as="geometry"/>
                </mxCell>
                <mxCell id="50" value="PK" style="shape=partialRectangle;top=0;left=0;bottom=0;fillColor=none;stokeWidth=1;dashed=1;align=left;verticalAlign=middle;spacingLeft=4;spacingRight=4;overflow=hidden;rotatable=0;points=[];portConstraint=eastwest;part=1;" parent="49" vertex="1" connectable="0">
                    <mxGeometry width="30" height="30" as="geometry"/>
                </mxCell>
                <mxCell id="51" value="" style="endArrow=none;html=1;rounded=0;entryX=0.526;entryY=1.067;entryDx=0;entryDy=0;entryPerimeter=0;" parent="48" target="61" edge="1">
                    <mxGeometry relative="1" as="geometry">
                        <mxPoint x="120" y="30" as="sourcePoint"/>
                        <mxPoint x="120" y="130" as="targetPoint"/>
                    </mxGeometry>
                </mxCell>
                <mxCell id="52" value="" style="line;strokeWidth=1;rotatable=0;dashed=0;labelPosition=right;align=left;verticalAlign=middle;spacingTop=0;spacingLeft=6;points=[];portConstraint=eastwest;" parent="48" vertex="1">
                    <mxGeometry y="60" width="230" height="10" as="geometry"/>
                </mxCell>
                <mxCell id="53" value="google_id　　        VARCHAR(255)" style="shape=partialRectangle;fillColor=none;align=left;verticalAlign=middle;strokeColor=none;spacingLeft=34;rotatable=0;points=[[0,0.5],[1,0.5]];portConstraint=eastwest;dropTarget=0;" parent="48" vertex="1">
                    <mxGeometry y="70" width="230" height="30" as="geometry"/>
                </mxCell>
                <mxCell id="54" value="" style="shape=partialRectangle;top=0;left=0;bottom=0;fillColor=none;stokeWidth=1;dashed=1;align=left;verticalAlign=middle;spacingLeft=4;spacingRight=4;overflow=hidden;rotatable=0;points=[];portConstraint=eastwest;part=1;" parent="53" vertex="1" connectable="0">
                    <mxGeometry width="30" height="30" as="geometry"/>
                </mxCell>
                <mxCell id="59" value="created_at　　　        TIMESTAMP" style="shape=partialRectangle;fillColor=none;align=left;verticalAlign=middle;strokeColor=none;spacingLeft=34;rotatable=0;points=[[0,0.5],[1,0.5]];portConstraint=eastwest;dropTarget=0;" parent="48" vertex="1">
                    <mxGeometry y="100" width="230" height="30" as="geometry"/>
                </mxCell>
                <mxCell id="60" value="" style="shape=partialRectangle;top=0;left=0;bottom=0;fillColor=none;stokeWidth=1;dashed=1;align=left;verticalAlign=middle;spacingLeft=4;spacingRight=4;overflow=hidden;rotatable=0;points=[];portConstraint=eastwest;part=1;" parent="59" vertex="1" connectable="0">
                    <mxGeometry width="30" height="30" as="geometry"/>
                </mxCell>
                <mxCell id="61" value="&lt;meta charset=&quot;utf-8&quot;&gt;&lt;strong style=&quot;--tw-translate-x: 0; --tw-translate-y: 0; --tw-rotate: 0; --tw-skew-x: 0; --tw-skew-y: 0; --tw-scale-x: 1; --tw-scale-y: 1; --tw-blur: ; --tw-brightness: ; --tw-contrast: ; --tw-grayscale: ; --tw-hue-rotate: ; --tw-saturate: ; --tw-sepia: ; --tw-drop-shadow: ; --tw-gradient-from-position: ; --tw-gradient-via-position: ; --tw-gradient-to-position: ; border-style: solid; border-width: 0px; font-family: &amp;quot;Noto Sans SC&amp;quot;, &amp;quot;Noto Sans JP&amp;quot;, &amp;quot;Noto Sans KR&amp;quot;, &amp;quot;Source Han Sans JP&amp;quot;, system-ui, sans-serif, &amp;quot;Apple Color Emoji&amp;quot;, &amp;quot;Segoe UI Emoji&amp;quot;, &amp;quot;Segoe UI Symbol&amp;quot;, &amp;quot;Noto Color Emoji&amp;quot;; color: rgb(35, 36, 37); font-size: 16px; font-style: normal; font-variant-ligatures: normal; font-variant-caps: normal; letter-spacing: normal; orphans: 2; text-align: start; text-indent: 0px; text-transform: none; widows: 2; word-spacing: 0px; -webkit-text-stroke-width: 0px; white-space: normal; background-color: rgb(255, 255, 255); text-decoration-thickness: initial; text-decoration-style: initial; text-decoration-color: initial;&quot;&gt;users&lt;/strong&gt;" style="shape=partialRectangle;fillColor=none;align=left;verticalAlign=middle;strokeColor=none;spacingLeft=34;rotatable=0;points=[[0,0.5],[1,0.5]];portConstraint=eastwest;dropTarget=0;" parent="48" vertex="1">
                    <mxGeometry y="130" width="230" height="30" as="geometry"/>
                </mxCell>
                <mxCell id="62" value="" style="shape=partialRectangle;top=0;left=0;bottom=0;fillColor=none;stokeWidth=1;dashed=1;align=left;verticalAlign=middle;spacingLeft=4;spacingRight=4;overflow=hidden;rotatable=0;points=[];portConstraint=eastwest;part=1;" parent="61" vertex="1" connectable="0">
                    <mxGeometry width="30" height="30" as="geometry"/>
                </mxCell>
                <mxCell id="78" value="challenges" style="swimlane;fontStyle=0;childLayout=stackLayout;horizontal=1;startSize=26;horizontalStack=0;resizeParent=1;resizeParentMax=0;resizeLast=0;collapsible=1;marginBottom=0;align=center;fontSize=14;" parent="1" vertex="1">
                    <mxGeometry x="50" y="280" width="220" height="186" as="geometry"/>
                </mxCell>
                <mxCell id="79" value="id　　　　　　　　　　　   UUID" style="shape=partialRectangle;fillColor=none;align=left;verticalAlign=middle;strokeColor=none;spacingLeft=34;rotatable=0;points=[[0,0.5],[1,0.5]];portConstraint=eastwest;dropTarget=0;" parent="78" vertex="1">
                    <mxGeometry y="26" width="220" height="30" as="geometry"/>
                </mxCell>
                <mxCell id="80" value="PK" style="shape=partialRectangle;top=0;left=0;bottom=0;fillColor=none;stokeWidth=1;dashed=1;align=left;verticalAlign=middle;spacingLeft=4;spacingRight=4;overflow=hidden;rotatable=0;points=[];portConstraint=eastwest;part=1;" parent="79" vertex="1" connectable="0">
                    <mxGeometry width="30" height="30" as="geometry"/>
                </mxCell>
                <mxCell id="81" value="" style="endArrow=none;html=1;rounded=0;exitX=0.636;exitY=1.133;exitDx=0;exitDy=0;exitPerimeter=0;" parent="78" source="89" edge="1">
                    <mxGeometry width="50" height="50" relative="1" as="geometry">
                        <mxPoint x="140" y="158" as="sourcePoint"/>
                        <mxPoint x="140" y="28" as="targetPoint"/>
                    </mxGeometry>
                </mxCell>
                <mxCell id="82" value="" style="line;strokeWidth=1;rotatable=0;dashed=0;labelPosition=right;align=left;verticalAlign=middle;spacingTop=0;spacingLeft=6;points=[];portConstraint=eastwest;" parent="78" vertex="1">
                    <mxGeometry y="56" width="220" height="10" as="geometry"/>
                </mxCell>
                <mxCell id="83" value="chiid_id　　　　            　   UUID" style="shape=partialRectangle;fillColor=none;align=left;verticalAlign=middle;strokeColor=none;spacingLeft=34;rotatable=0;points=[[0,0.5],[1,0.5]];portConstraint=eastwest;dropTarget=0;" parent="78" vertex="1">
                    <mxGeometry y="66" width="220" height="30" as="geometry"/>
                </mxCell>
                <mxCell id="84" value="FK" style="shape=partialRectangle;top=0;left=0;bottom=0;fillColor=none;stokeWidth=1;dashed=1;align=left;verticalAlign=middle;spacingLeft=4;spacingRight=4;overflow=hidden;rotatable=0;points=[];portConstraint=eastwest;part=1;" parent="83" vertex="1" connectable="0">
                    <mxGeometry width="30" height="30" as="geometry"/>
                </mxCell>
                <mxCell id="85" value="transcript　     　　　　　    TEXT" style="shape=partialRectangle;fillColor=none;align=left;verticalAlign=middle;strokeColor=none;spacingLeft=34;rotatable=0;points=[[0,0.5],[1,0.5]];portConstraint=eastwest;dropTarget=0;" parent="78" vertex="1">
                    <mxGeometry y="96" width="220" height="30" as="geometry"/>
                </mxCell>
                <mxCell id="86" value="" style="shape=partialRectangle;top=0;left=0;bottom=0;fillColor=none;stokeWidth=1;dashed=1;align=left;verticalAlign=middle;spacingLeft=4;spacingRight=4;overflow=hidden;rotatable=0;points=[];portConstraint=eastwest;part=1;" parent="85" vertex="1" connectable="0">
                    <mxGeometry width="30" height="30" as="geometry"/>
                </mxCell>
                <mxCell id="87" value="comment　　　                    TEXT" style="shape=partialRectangle;fillColor=none;align=left;verticalAlign=middle;strokeColor=none;spacingLeft=34;rotatable=0;points=[[0,0.5],[1,0.5]];portConstraint=eastwest;dropTarget=0;fontColor=#000000;" parent="78" vertex="1">
                    <mxGeometry y="126" width="220" height="30" as="geometry"/>
                </mxCell>
                <mxCell id="88" value="" style="shape=partialRectangle;top=0;left=0;bottom=0;fillColor=none;stokeWidth=1;dashed=1;align=left;verticalAlign=middle;spacingLeft=4;spacingRight=4;overflow=hidden;rotatable=0;points=[];portConstraint=eastwest;part=1;" parent="87" vertex="1" connectable="0">
                    <mxGeometry width="30" height="30" as="geometry"/>
                </mxCell>
                <mxCell id="89" value="created_at　　　　  TIMESTAMP" style="shape=partialRectangle;fillColor=none;align=left;verticalAlign=middle;strokeColor=none;spacingLeft=34;rotatable=0;points=[[0,0.5],[1,0.5]];portConstraint=eastwest;dropTarget=0;" parent="78" vertex="1">
                    <mxGeometry y="156" width="220" height="30" as="geometry"/>
                </mxCell>
                <mxCell id="90" value="" style="shape=partialRectangle;top=0;left=0;bottom=0;fillColor=none;stokeWidth=1;dashed=1;align=left;verticalAlign=middle;spacingLeft=4;spacingRight=4;overflow=hidden;rotatable=0;points=[];portConstraint=eastwest;part=1;" parent="89" vertex="1" connectable="0">
                    <mxGeometry width="30" height="30" as="geometry"/>
                </mxCell>
                <mxCell id="91" value="" style="edgeStyle=entityRelationEdgeStyle;fontSize=12;html=1;endArrow=ERoneToMany;startArrow=ERmandOne;rounded=0;entryX=0;entryY=0.5;entryDx=0;entryDy=0;exitX=1;exitY=0.5;exitDx=0;exitDy=0;" parent="1" source="49" target="34" edge="1">
                    <mxGeometry width="100" height="100" relative="1" as="geometry">
                        <mxPoint x="310" y="160" as="sourcePoint"/>
                        <mxPoint x="420" y="281" as="targetPoint"/>
                        <Array as="points">
                            <mxPoint x="430" y="270"/>
                        </Array>
                    </mxGeometry>
                </mxCell>
                <mxCell id="93" value="" style="edgeStyle=entityRelationEdgeStyle;fontSize=12;html=1;endArrow=ERoneToMany;startArrow=ERmandOne;rounded=0;entryX=0.991;entryY=0.217;entryDx=0;entryDy=0;entryPerimeter=0;exitX=-0.02;exitY=0.85;exitDx=0;exitDy=0;exitPerimeter=0;" parent="1" source="34" target="79" edge="1">
                    <mxGeometry width="100" height="100" relative="1" as="geometry">
                        <mxPoint x="520" y="110" as="sourcePoint"/>
                        <mxPoint x="450" y="213" as="targetPoint"/>
                        <Array as="points">
                            <mxPoint x="540" y="122"/>
                            <mxPoint x="540" y="92"/>
                            <mxPoint x="540" y="152"/>
                            <mxPoint x="540" y="92"/>
                        </Array>
                    </mxGeometry>
                </mxCell>
            </root>
        </mxGraphModel>
    </diagram>
</mxfile>
>>>>>>> origin/develop
